<svg xmlns="http://www.w3.org/2000/svg" xmlns:xlink="http://www.w3.org/1999/xlink" x="0px" y="0px" viewBox="0 0 2340 1560" style="enable-background:new 0 0 2340 1560;" xml:space="preserve"><style type="text/css">	.st0{fill:#FFFFFF;}	.st1{fill:#31A880;}	.st2{opacity:0.34;fill:#A4CFFD;}	.st3{fill:#2D100A;}	.st4{opacity:0.34;clip-path:url(#SVGID_2_);fill:#A4CFFD;}	.st5{clip-path:url(#SVGID_2_);fill:#FFFFFF;}	.st6{clip-path:url(#SVGID_2_);fill:#4DA1ED;}	.st7{clip-path:url(#SVGID_2_);}	.st8{fill:#4BCCA5;}	.st9{fill:#341C15;}	.st10{clip-path:url(#SVGID_2_);fill:#341C15;}	.st11{fill:#F9D6AA;}	.st12{fill:#E8BA82;}	.st13{fill:#4EBDFA;}	.st14{fill:#FFFFFF;stroke:#2D100A;stroke-width:1.777;stroke-linecap:round;stroke-linejoin:round;stroke-miterlimit:10;}	.st15{fill:#113140;}	.st16{fill:#2B5A74;}	.st17{fill:#FFFEFF;}	.st18{fill:none;stroke:#FFFFFF;stroke-width:1.777;stroke-linecap:round;stroke-linejoin:round;stroke-miterlimit:10;}	.st19{fill:#4BCCA5;stroke:#4BCCA5;stroke-width:6.5156;stroke-miterlimit:10;}	.st20{fill:none;stroke:#4BCCA5;stroke-width:6.5156;stroke-miterlimit:10;}	.st21{fill:#F53F0A;stroke:#F53F0A;stroke-width:6.5156;stroke-miterlimit:10;}	.st22{fill:none;stroke:#F53F0A;stroke-width:6.5156;stroke-miterlimit:10;}	.st23{opacity:0.35;}	.st24{fill:none;stroke:#5873CA;stroke-width:1.1847;stroke-linecap:round;stroke-linejoin:round;stroke-miterlimit:10;}	.st25{fill:#4DA1ED;}	.st26{fill:#000100;}	.st27{fill:#4F63BE;}	.st28{fill:#494848;}	.st29{fill:#361C15;}	.st30{fill:#F59382;}	.st31{fill:none;stroke:#2D100A;stroke-width:1.1847;stroke-linecap:round;stroke-linejoin:round;stroke-miterlimit:10;}	.st32{fill:#F9A404;}	.st33{fill:none;stroke:#2D100A;stroke-width:0.5923;stroke-linecap:round;stroke-linejoin:round;stroke-miterlimit:10;}	.st34{fill:none;stroke:#E36251;stroke-width:1.777;stroke-linecap:round;stroke-linejoin:round;stroke-miterlimit:10;}	.st35{fill:none;stroke:#000100;stroke-width:1.1847;stroke-linecap:round;stroke-linejoin:round;stroke-miterlimit:10;}	.st36{fill:#0C0B0B;}	.st37{fill:none;stroke:#2D100A;stroke-width:1.777;stroke-linecap:round;stroke-linejoin:round;stroke-miterlimit:10;}	.st38{fill:#F53F0A;}	.st39{fill:#FF7352;}	.st40{fill:#BFE3F1;}	.st41{fill:#C8E8F7;}	.st42{fill:none;stroke:#4BCCA5;stroke-width:1.1847;stroke-linecap:round;stroke-linejoin:round;stroke-miterlimit:10;}	.st43{fill:#31B589;}	.st44{fill:none;stroke:#FFFFFF;stroke-width:0.5923;stroke-linecap:round;stroke-linejoin:round;stroke-miterlimit:10;}	.st45{clip-path:url(#XMLID_2_);fill:#FCC950;}</style><g id="Background">	<rect class="st0" width="2340" height="1560"></rect></g><g id="Character">	<g>		<rect x="1455.7" y="534.6" class="st1" width="153.7" height="153.7"></rect>		<rect x="1467.9" y="546.8" class="st0" width="129.3" height="129.3"></rect>		<polygon class="st2" points="1537.9,546.6 1467.3,635.1 1467.9,676.1 1568.9,547.6   "></polygon>		<polygon class="st2" points="1597.2,546.8 1491.6,676.4 1527.4,676.4 1597.2,585.9   "></polygon>		<circle class="st3" cx="1532.5" cy="534.3" r="6.2"></circle>	</g>	<g>		<defs>			<rect id="SVGID_1_" x="216.9" y="138.8" width="1777" height="1213.3"></rect>		</defs>		<clipPath id="SVGID_2_">			<use xlink:href="#SVGID_1_" style="overflow:visible;"></use>		</clipPath>		<rect x="194.9" y="353.1" class="st4" width="729.7" height="742.7"></rect>		<rect x="285.8" y="727.7" class="st5" width="598.4" height="17.3"></rect>					<rect x="195.2" y="714.9" transform="matrix(-1.836970e-16 1 -1 -1.836970e-16 1273.657 173.4568)" class="st5" width="709.8" height="17.3"></rect>		<path class="st5" d="M281.9,543.1h327.2c0,0-16.3-36.4-48.1-36.4c-31.8,0-41.9-30.6-73.7-33.4s-39.4,36.5-67.1,38.4   c-45.3,3.1-35.1-12.3-73.9-7.2C319,508.1,312.7,541.3,281.9,543.1z"></path>		<path class="st5" d="M469.6,681.3h286.1c0,0-14.3-31.8-42.1-31.8s-36.7-26.7-64.4-29.2s-34.5,31.9-58.7,33.6   c-39.6,2.7-30.7-10.8-64.6-6.3C502,650.8,496.5,679.8,469.6,681.3z"></path>		<path class="st5" d="M531,899.4H203.8c0,0,16.3-36.4,48.1-36.4s41.9-30.6,73.7-33.4s39.4,36.5,67.1,38.4   c45.3,3.1,35.1-12.3,73.9-7.2C494,864.5,500.3,897.7,531,899.4z"></path>		<rect x="313.5" y="351.4" class="st6" width="598.4" height="17.3"></rect>		<rect x="301.4" y="1078.2" class="st6" width="598.4" height="17.3"></rect>		<g class="st7">			<g>				<g>					<path class="st8" d="M13.8,1139L13.8,1139c-5.7,0-10.3-4.6-10.3-10.3V334.9c0-5.7,4.6-10.3,10.3-10.3h0      c5.7,0,10.3,4.6,10.3,10.3v793.7C24.1,1134.3,19.5,1139,13.8,1139z"></path>					<rect x="24.1" y="340.4" class="st1" width="10.3" height="782.8"></rect>				</g>				<g>					<path class="st8" d="M44.8,1139L44.8,1139c-5.7,0-10.3-4.6-10.3-10.3V334.9c0-5.7,4.6-10.3,10.3-10.3h0      c5.7,0,10.3,4.6,10.3,10.3v793.7C55.1,1134.3,50.5,1139,44.8,1139z"></path>					<rect x="55.1" y="340.4" class="st1" width="10.3" height="782.8"></rect>				</g>				<g>					<path class="st8" d="M75.8,1139L75.8,1139c-5.7,0-10.3-4.6-10.3-10.3V334.9c0-5.7,4.6-10.3,10.3-10.3h0      c5.7,0,10.3,4.6,10.3,10.3v793.7C86.1,1134.3,81.5,1139,75.8,1139z"></path>					<rect x="86.1" y="340.4" class="st1" width="10.3" height="782.8"></rect>				</g>				<g>					<path class="st8" d="M106.8,1139L106.8,1139c-5.7,0-10.3-4.6-10.3-10.3V334.9c0-5.7,4.6-10.3,10.3-10.3h0      c5.7,0,10.3,4.6,10.3,10.3v793.7C117.2,1134.3,112.5,1139,106.8,1139z"></path>					<rect x="117.2" y="340.4" class="st1" width="10.3" height="782.8"></rect>				</g>				<g>					<path class="st8" d="M137.8,1139L137.8,1139c-5.7,0-10.3-4.6-10.3-10.3V334.9c0-5.7,4.6-10.3,10.3-10.3h0      c5.7,0,10.3,4.6,10.3,10.3v793.7C148.2,1134.3,143.5,1139,137.8,1139z"></path>					<rect x="148.2" y="340.4" class="st1" width="10.3" height="782.8"></rect>				</g>				<g>					<path class="st8" d="M168.8,1139L168.8,1139c-5.7,0-10.3-4.6-10.3-10.3V334.9c0-5.7,4.6-10.3,10.3-10.3h0      c5.7,0,10.3,4.6,10.3,10.3v793.7C179.2,1134.3,174.5,1139,168.8,1139z"></path>					<rect x="179.2" y="340.4" class="st1" width="10.3" height="782.8"></rect>				</g>				<g>					<path class="st8" d="M199.8,1139L199.8,1139c-5.7,0-10.3-4.6-10.3-10.3V334.9c0-5.7,4.6-10.3,10.3-10.3h0      c5.7,0,10.3,4.6,10.3,10.3v793.7C210.2,1134.3,205.6,1139,199.8,1139z"></path>					<rect x="210.2" y="340.4" class="st1" width="10.3" height="782.8"></rect>				</g>				<g>					<path class="st8" d="M230.9,1139L230.9,1139c-5.7,0-10.3-4.6-10.3-10.3V334.9c0-5.7,4.6-10.3,10.3-10.3h0      c5.7,0,10.3,4.6,10.3,10.3v793.7C241.2,1134.3,236.6,1139,230.9,1139z"></path>					<rect x="241.2" y="340.4" class="st1" width="10.3" height="782.8"></rect>				</g>				<g>					<path class="st8" d="M261.9,1139L261.9,1139c-5.7,0-10.3-4.6-10.3-10.3V334.9c0-5.7,4.6-10.3,10.3-10.3h0      c5.7,0,10.3,4.6,10.3,10.3v793.7C272.2,1134.3,267.6,1139,261.9,1139z"></path>					<rect x="272.2" y="340.4" class="st1" width="10.3" height="782.8"></rect>				</g>				<g>					<path class="st8" d="M292.9,1139L292.9,1139c-5.7,0-10.3-4.6-10.3-10.3V334.9c0-5.7,4.6-10.3,10.3-10.3h0      c5.7,0,10.3,4.6,10.3,10.3v793.7C303.2,1134.3,298.6,1139,292.9,1139z"></path>					<rect x="303.2" y="340.4" class="st1" width="10.3" height="782.8"></rect>				</g>				<g>					<path class="st8" d="M323.9,1139L323.9,1139c-5.7,0-10.3-4.6-10.3-10.3V334.9c0-5.7,4.6-10.3,10.3-10.3l0,0      c5.7,0,10.3,4.6,10.3,10.3v793.7C334.2,1134.3,329.6,1139,323.9,1139z"></path>					<rect x="334.2" y="340.4" class="st1" width="10.3" height="782.8"></rect>				</g>				<path class="st9" d="M13.8,336.8L13.8,336.8c-1.8,0-3.2-1.4-3.2-3.2v-17.6c0-1.8,1.4-3.2,3.2-3.2h0c1.8,0,3.2,1.4,3.2,3.2v17.6     C17,335.3,15.5,336.8,13.8,336.8z"></path>				<path class="st9" d="M44.8,336.8L44.8,336.8c-1.8,0-3.2-1.4-3.2-3.2v-17.6c0-1.8,1.4-3.2,3.2-3.2h0c1.8,0,3.2,1.4,3.2,3.2v17.6     C48,335.3,46.6,336.8,44.8,336.8z"></path>				<path class="st9" d="M75.8,336.8L75.8,336.8c-1.8,0-3.2-1.4-3.2-3.2v-17.6c0-1.8,1.4-3.2,3.2-3.2h0c1.8,0,3.2,1.4,3.2,3.2v17.6     C79,335.3,77.6,336.8,75.8,336.8z"></path>				<path class="st9" d="M106.8,336.8L106.8,336.8c-1.8,0-3.2-1.4-3.2-3.2v-17.6c0-1.8,1.4-3.2,3.2-3.2h0c1.8,0,3.2,1.4,3.2,3.2     v17.6C110,335.3,108.6,336.8,106.8,336.8z"></path>				<path class="st9" d="M137.8,336.8L137.8,336.8c-1.8,0-3.2-1.4-3.2-3.2v-17.6c0-1.8,1.4-3.2,3.2-3.2h0c1.8,0,3.2,1.4,3.2,3.2     v17.6C141,335.3,139.6,336.8,137.8,336.8z"></path>				<path class="st9" d="M168.8,336.8L168.8,336.8c-1.8,0-3.2-1.4-3.2-3.2v-17.6c0-1.8,1.4-3.2,3.2-3.2l0,0c1.8,0,3.2,1.4,3.2,3.2     v17.6C172,335.3,170.6,336.8,168.8,336.8z"></path>				<path class="st9" d="M199.8,336.8L199.8,336.8c-1.8,0-3.2-1.4-3.2-3.2v-17.6c0-1.8,1.4-3.2,3.2-3.2h0c1.8,0,3.2,1.4,3.2,3.2     v17.6C203,335.3,201.6,336.8,199.8,336.8z"></path>				<path class="st9" d="M230.9,336.8L230.9,336.8c-1.8,0-3.2-1.4-3.2-3.2v-17.6c0-1.8,1.4-3.2,3.2-3.2l0,0c1.8,0,3.2,1.4,3.2,3.2     v17.6C234,335.3,232.6,336.8,230.9,336.8z"></path>				<path class="st9" d="M261.9,336.8L261.9,336.8c-1.8,0-3.2-1.4-3.2-3.2v-17.6c0-1.8,1.4-3.2,3.2-3.2l0,0c1.8,0,3.2,1.4,3.2,3.2     v17.6C265.1,335.3,263.6,336.8,261.9,336.8z"></path>				<path class="st9" d="M292.9,336.8L292.9,336.8c-1.8,0-3.2-1.4-3.2-3.2v-17.6c0-1.8,1.4-3.2,3.2-3.2l0,0c1.8,0,3.2,1.4,3.2,3.2     v17.6C296.1,335.3,294.6,336.8,292.9,336.8z"></path>				<path class="st9" d="M323.9,336.8L323.9,336.8c-1.8,0-3.2-1.4-3.2-3.2v-17.6c0-1.8,1.4-3.2,3.2-3.2l0,0c1.8,0,3.2,1.4,3.2,3.2     v17.6C327.1,335.3,325.6,336.8,323.9,336.8z"></path>			</g>			<g>				<g>					<path class="st8" d="M776.8,1134.1L776.8,1134.1c-5.7,0-10.3-4.6-10.3-10.3V330.1c0-5.7,4.6-10.3,10.3-10.3h0      c5.7,0,10.3,4.6,10.3,10.3v793.7C787.1,1129.5,782.5,1134.1,776.8,1134.1z"></path>					<rect x="787.1" y="335.5" class="st1" width="10.3" height="782.8"></rect>				</g>				<g>					<path class="st8" d="M807.8,1134.1L807.8,1134.1c-5.7,0-10.3-4.6-10.3-10.3V330.1c0-5.7,4.6-10.3,10.3-10.3l0,0      c5.7,0,10.3,4.6,10.3,10.3v793.7C818.1,1129.5,813.5,1134.1,807.8,1134.1z"></path>					<rect x="818.1" y="335.5" class="st1" width="10.3" height="782.8"></rect>				</g>				<g>					<path class="st8" d="M838.8,1134.1L838.8,1134.1c-5.7,0-10.3-4.6-10.3-10.3V330.1c0-5.7,4.6-10.3,10.3-10.3l0,0      c5.7,0,10.3,4.6,10.3,10.3v793.7C849.1,1129.5,844.5,1134.1,838.8,1134.1z"></path>					<rect x="849.1" y="335.5" class="st1" width="10.3" height="782.8"></rect>				</g>				<g>					<path class="st8" d="M869.8,1134.1L869.8,1134.1c-5.7,0-10.3-4.6-10.3-10.3V330.1c0-5.7,4.6-10.3,10.3-10.3h0      c5.7,0,10.3,4.6,10.3,10.3v793.7C880.1,1129.5,875.5,1134.1,869.8,1134.1z"></path>					<rect x="880.1" y="335.5" class="st1" width="10.3" height="782.8"></rect>				</g>				<g>					<path class="st8" d="M900.8,1134.1L900.8,1134.1c-5.7,0-10.3-4.6-10.3-10.3V330.1c0-5.7,4.6-10.3,10.3-10.3l0,0      c5.7,0,10.3,4.6,10.3,10.3v793.7C911.2,1129.5,906.5,1134.1,900.8,1134.1z"></path>					<rect x="911.2" y="335.5" class="st1" width="10.3" height="782.8"></rect>				</g>				<g>					<path class="st8" d="M931.8,1134.1L931.8,1134.1c-5.7,0-10.3-4.6-10.3-10.3V330.1c0-5.7,4.6-10.3,10.3-10.3l0,0      c5.7,0,10.3,4.6,10.3,10.3v793.7C942.2,1129.5,937.5,1134.1,931.8,1134.1z"></path>					<rect x="942.2" y="335.5" class="st1" width="10.3" height="782.8"></rect>				</g>				<g>					<path class="st8" d="M962.8,1134.1L962.8,1134.1c-5.7,0-10.3-4.6-10.3-10.3V330.1c0-5.7,4.6-10.3,10.3-10.3h0      c5.7,0,10.3,4.6,10.3,10.3v793.7C973.2,1129.5,968.5,1134.1,962.8,1134.1z"></path>					<rect x="973.2" y="335.5" class="st1" width="10.3" height="782.8"></rect>				</g>				<g>					<path class="st8" d="M993.8,1134.1L993.8,1134.1c-5.7,0-10.3-4.6-10.3-10.3V330.1c0-5.7,4.6-10.3,10.3-10.3l0,0      c5.7,0,10.3,4.6,10.3,10.3v793.7C1004.2,1129.5,999.6,1134.1,993.8,1134.1z"></path>					<rect x="1004.2" y="335.5" class="st1" width="10.3" height="782.8"></rect>				</g>				<g>					<path class="st8" d="M1024.9,1134.1L1024.9,1134.1c-5.7,0-10.3-4.6-10.3-10.3V330.1c0-5.7,4.6-10.3,10.3-10.3l0,0      c5.7,0,10.3,4.6,10.3,10.3v793.7C1035.2,1129.5,1030.6,1134.1,1024.9,1134.1z"></path>					<rect x="1035.2" y="335.5" class="st1" width="10.3" height="782.8"></rect>				</g>				<g>					<path class="st8" d="M1055.9,1134.1L1055.9,1134.1c-5.7,0-10.3-4.6-10.3-10.3V330.1c0-5.7,4.6-10.3,10.3-10.3l0,0      c5.7,0,10.3,4.6,10.3,10.3v793.7C1066.2,1129.5,1061.6,1134.1,1055.9,1134.1z"></path>					<rect x="1066.2" y="335.5" class="st1" width="10.3" height="782.8"></rect>				</g>				<g>					<path class="st8" d="M1086.9,1134.1L1086.9,1134.1c-5.7,0-10.3-4.6-10.3-10.3V330.1c0-5.7,4.6-10.3,10.3-10.3l0,0      c5.7,0,10.3,4.6,10.3,10.3v793.7C1097.2,1129.5,1092.6,1134.1,1086.9,1134.1z"></path>					<rect x="1097.2" y="335.5" class="st1" width="10.3" height="782.8"></rect>				</g>				<path class="st9" d="M776.8,331.9L776.8,331.9c-1.8,0-3.2-1.4-3.2-3.2v-17.6c0-1.8,1.4-3.2,3.2-3.2l0,0c1.8,0,3.2,1.4,3.2,3.2     v17.6C780,330.5,778.5,331.9,776.8,331.9z"></path>				<path class="st9" d="M807.8,331.9L807.8,331.9c-1.8,0-3.2-1.4-3.2-3.2v-17.6c0-1.8,1.4-3.2,3.2-3.2l0,0c1.8,0,3.2,1.4,3.2,3.2     v17.6C811,330.5,809.5,331.9,807.8,331.9z"></path>				<path class="st9" d="M838.8,331.9L838.8,331.9c-1.8,0-3.2-1.4-3.2-3.2v-17.6c0-1.8,1.4-3.2,3.2-3.2l0,0c1.8,0,3.2,1.4,3.2,3.2     v17.6C842,330.5,840.6,331.9,838.8,331.9z"></path>				<path class="st9" d="M869.8,331.9L869.8,331.9c-1.8,0-3.2-1.4-3.2-3.2v-17.6c0-1.8,1.4-3.2,3.2-3.2h0c1.8,0,3.2,1.4,3.2,3.2     v17.6C873,330.5,871.6,331.9,869.8,331.9z"></path>				<path class="st9" d="M900.8,331.9L900.8,331.9c-1.8,0-3.2-1.4-3.2-3.2v-17.6c0-1.8,1.4-3.2,3.2-3.2l0,0c1.8,0,3.2,1.4,3.2,3.2     v17.6C904,330.5,902.6,331.9,900.8,331.9z"></path>				<path class="st9" d="M931.8,331.9L931.8,331.9c-1.8,0-3.2-1.4-3.2-3.2v-17.6c0-1.8,1.4-3.2,3.2-3.2l0,0c1.8,0,3.2,1.4,3.2,3.2     v17.6C935,330.5,933.6,331.9,931.8,331.9z"></path>				<path class="st9" d="M962.8,331.9L962.8,331.9c-1.8,0-3.2-1.4-3.2-3.2v-17.6c0-1.8,1.4-3.2,3.2-3.2l0,0c1.8,0,3.2,1.4,3.2,3.2     v17.6C966,330.5,964.6,331.9,962.8,331.9z"></path>				<path class="st9" d="M993.8,331.9L993.8,331.9c-1.8,0-3.2-1.4-3.2-3.2v-17.6c0-1.8,1.4-3.2,3.2-3.2l0,0c1.8,0,3.2,1.4,3.2,3.2     v17.6C997,330.5,995.6,331.9,993.8,331.9z"></path>				<path class="st9" d="M1024.9,331.9L1024.9,331.9c-1.8,0-3.2-1.4-3.2-3.2v-17.6c0-1.8,1.4-3.2,3.2-3.2l0,0c1.8,0,3.2,1.4,3.2,3.2     v17.6C1028,330.5,1026.6,331.9,1024.9,331.9z"></path>				<path class="st9" d="M1055.9,331.9L1055.9,331.9c-1.8,0-3.2-1.4-3.2-3.2v-17.6c0-1.8,1.4-3.2,3.2-3.2l0,0c1.8,0,3.2,1.4,3.2,3.2     v17.6C1059.1,330.5,1057.6,331.9,1055.9,331.9z"></path>				<path class="st9" d="M1086.9,331.9L1086.9,331.9c-1.8,0-3.2-1.4-3.2-3.2v-17.6c0-1.8,1.4-3.2,3.2-3.2l0,0c1.8,0,3.2,1.4,3.2,3.2     v17.6C1090.1,330.5,1088.6,331.9,1086.9,331.9z"></path>			</g>		</g>		<path class="st10" d="M155.2,310.1H1119c3.5,0,6.3-2.8,6.3-6.3l0,0c0-3.5-2.8-6.3-6.3-6.3H155.2c-3.5,0-6.3,2.8-6.3,6.3l0,0   C148.9,307.3,151.7,310.1,155.2,310.1z"></path>		<circle class="st10" cx="1126.3" cy="303.3" r="15.9"></circle>	</g>	<rect y="1355.1" class="st11" width="2340" height="204.9"></rect>	<polygon class="st12" points="2340,1560 0,1560 0,1446.1  "></polygon>	<g>		<path class="st13" d="M1519.2,1289.2l-28.6,6.4v-172.5l28.3,6c10.8,2.3,18.5,11.8,18.5,22.9v114.3   C1537.5,1277.3,1529.9,1286.8,1519.2,1289.2z"></path>		<path class="st14" d="M1476.3,1321.6h-396.5c-7.9,0-14.3-6.4-14.3-14.3v-297c0-7.9,6.4-14.3,14.3-14.3h396.5   c7.9,0,14.3,6.4,14.3,14.3v297C1490.6,1315.2,1484.2,1321.6,1476.3,1321.6z"></path>		<rect x="1099.2" y="1026.7" class="st13" width="258.2" height="264.2"></rect>		<g>			<path class="st15" d="M1228.5,1276.2c-64.8,0-117.4-52.5-117.4-117.4c0-64.8,52.5-117.4,117.4-117.4V1276.2z"></path>			<path class="st16" d="M1228.1,1276.2c64.8,0,117.4-52.5,117.4-117.4c0-64.8-52.5-117.4-117.4-117.4V1276.2z"></path>			<g>				<path class="st15" d="M1265.2,1093.2c14.9-15.4,39.4-15.8,54.8-1l0,0l-90.9,94.1l-1-54.8L1265.2,1093.2z"></path>				<path class="st15" d="M1227.6,1131.5l66.2,64c15.4,14.9,15.8,39.4,1,54.8l0,0l-66.2-64L1227.6,1131.5z"></path>				<path class="st16" d="M1191.5,1224.7c-14.9,15.4-39.4,15.8-54.8,1l0,0l90.9-94.1l1,54.8L1191.5,1224.7z"></path>				<path class="st16" d="M1228.6,1186.3l-66.2-64c-15.4-14.9-15.8-39.4-1-54.8l0,0l66.2,64L1228.6,1186.3z"></path>			</g>							<ellipse transform="matrix(0.7071 -0.7071 0.7071 0.7071 -459.6844 1207.7968)" class="st17" cx="1228.1" cy="1158.8" rx="32.3" ry="32.3"></ellipse>		</g>		<g>			<rect x="1097.3" y="1321.6" class="st15" width="32.4" height="32.4"></rect>			<rect x="1426.4" y="1321.6" class="st15" width="32.4" height="32.4"></rect>		</g>		<rect x="1386.1" y="1026.7" class="st13" width="72.7" height="53.7"></rect>		<g>			<rect x="1386.1" y="1120.5" class="st16" width="72.7" height="5.3"></rect>			<rect x="1386.1" y="1133.1" class="st16" width="72.7" height="5.3"></rect>			<rect x="1386.1" y="1145.7" class="st16" width="72.7" height="5.3"></rect>			<rect x="1386.1" y="1158.4" class="st16" width="72.7" height="5.3"></rect>			<rect x="1386.1" y="1171" class="st16" width="72.7" height="5.3"></rect>			<rect x="1386.1" y="1183.7" class="st16" width="72.7" height="5.3"></rect>			<rect x="1386.1" y="1196.3" class="st16" width="72.7" height="5.3"></rect>			<rect x="1386.1" y="1208.9" class="st16" width="72.7" height="5.3"></rect>			<rect x="1386.1" y="1221.6" class="st16" width="72.7" height="5.3"></rect>			<rect x="1386.1" y="1234.2" class="st16" width="72.7" height="5.3"></rect>			<rect x="1386.1" y="1246.8" class="st16" width="72.7" height="5.3"></rect>			<rect x="1386.1" y="1259.5" class="st16" width="72.7" height="5.3"></rect>			<rect x="1386.1" y="1272.1" class="st16" width="72.7" height="5.3"></rect>			<rect x="1386.1" y="1284.7" class="st16" width="72.7" height="5.3"></rect>		</g>		<circle class="st13" cx="1391.5" cy="1100.3" r="7.5"></circle>		<circle class="st13" cx="1451.3" cy="1100.3" r="7.5"></circle>		<circle class="st13" cx="1422.5" cy="1100.3" r="11.3"></circle>		<line class="st18" x1="1507.3" y1="1126.7" x2="1507.3" y2="1291.9"></line>		<rect x="1391.5" y="1033.2" class="st18" width="59.8" height="39.5"></rect>		<rect x="1106.8" y="1033.2" class="st18" width="241.5" height="251.9"></rect>	</g>	<g>		<path class="st19" d="M1396.7,792.9h-84.3c-6.8,0-12.3-5.7-12.3-12.7v0c0-7,5.5-12.7,12.3-12.7h84.3V792.9z"></path>		<path class="st0" d="M1452.7,792.9h-84.3c-6.8,0-12.3-5.7-12.3-12.7v0c0-7,5.5-12.7,12.3-12.7h84.3V792.9z"></path>		<path class="st20" d="M1452.7,792.9h-84.3c-6.8,0-12.3-5.7-12.3-12.7v0c0-7,5.5-12.7,12.3-12.7h84.3"></path>	</g>	<g>		<path class="st21" d="M1396.7,761.3h-84.3c-6.8,0-12.3-5.7-12.3-12.7l0,0c0-7,5.5-12.7,12.3-12.7h84.3V761.3z"></path>		<path class="st0" d="M1452.7,761.3h-84.3c-6.8,0-12.3-5.7-12.3-12.7l0,0c0-7,5.5-12.7,12.3-12.7h84.3V761.3z"></path>		<path class="st22" d="M1452.7,761.3h-84.3c-6.8,0-12.3-5.7-12.3-12.7l0,0c0-7,5.5-12.7,12.3-12.7h84.3"></path>	</g>	<g class="st23">					<rect x="524.8" y="218.3" transform="matrix(-1 -1.224647e-16 1.224647e-16 -1 1129.0909 464.302)" class="st24" width="79.5" height="27.7"></rect>					<rect x="445.3" y="218.3" transform="matrix(-1 -1.224647e-16 1.224647e-16 -1 970.041 464.302)" class="st24" width="79.5" height="27.7"></rect>		<polyline class="st24" points="485,273.7 485,246 564.5,246 564.5,273.7   "></polyline>		<line class="st24" x1="445.3" y1="273.7" x2="524.8" y2="273.7"></line>		<polyline class="st24" points="484.1,190.6 484.1,218.3 563.7,218.3 563.7,190.6   "></polyline>		<line class="st24" x1="523.9" y1="190.6" x2="603.4" y2="190.6"></line>	</g>	<g class="st23">					<rect x="1403.1" y="890.7" transform="matrix(-1 -1.224647e-16 1.224647e-16 -1 2891.9863 1811.3605)" class="st24" width="85.7" height="29.9"></rect>					<rect x="1317.5" y="890.7" transform="matrix(-1 -1.224647e-16 1.224647e-16 -1 2720.6104 1811.3605)" class="st24" width="85.7" height="29.9"></rect>		<polyline class="st24" points="1360.3,950.5 1360.3,920.6 1446,920.6 1446,950.5   "></polyline>		<line class="st24" x1="1317.5" y1="950.5" x2="1403.1" y2="950.5"></line>		<polyline class="st24" points="1359.4,860.9 1359.4,890.7 1445,890.7 1445,860.9   "></polyline>		<line class="st24" x1="1402.2" y1="860.9" x2="1487.9" y2="860.9"></line>	</g>	<g class="st23">					<rect x="1937.2" y="431.2" transform="matrix(-1 -1.224647e-16 1.224647e-16 -1 3953.8774 890.111)" class="st24" width="79.5" height="27.7"></rect>					<rect x="1857.7" y="431.2" transform="matrix(-1 -1.224647e-16 1.224647e-16 -1 3794.8276 890.111)" class="st24" width="79.5" height="27.7"></rect>		<polyline class="st24" points="1897.4,486.6 1897.4,458.9 1976.9,458.9 1976.9,486.6   "></polyline>		<line class="st24" x1="1857.7" y1="486.6" x2="1937.2" y2="486.6"></line>		<polyline class="st24" points="1896.5,403.5 1896.5,431.2 1976.1,431.2 1976.1,403.5   "></polyline>		<line class="st24" x1="1936.3" y1="403.5" x2="2015.8" y2="403.5"></line>	</g>	<g>		<path class="st25" d="M1659.9,1348.3l-16.7-4l63.8-266.2c8.3-34.6,22.9-67,43.4-96.1l21.7-30.9l14.1,9.9l-21.7,30.9   c-19.2,27.4-32.9,57.7-40.7,90.3L1659.9,1348.3z"></path>		<path class="st25" d="M1931.6,1348.3l-16.7-4l61.6-258c8.3-34.6,22.9-67,43.4-96.1l21.7-30.9l14.1,9.9l-21.7,30.9   c-19.2,27.4-32.9,57.7-40.7,90.3L1931.6,1348.3z"></path>		<path class="st26" d="M2072.1,1194l13.8,57.4h-147.3c0,0-1-10.4,17.4-13.4c18.3-3,53.4-8.4,68.3-44H2072.1z"></path>		<path class="st26" d="M1665.4,1337.6h-27.6c-5.7,0-10.4,4.6-10.4,10.4v7.1h48.4v-7.1C1675.8,1342.2,1671.1,1337.6,1665.4,1337.6z"></path>		<path class="st26" d="M1937.1,1337.6h-27.6c-5.7,0-10.4,4.6-10.4,10.4v7.1h48.4v-7.1C1947.4,1342.2,1942.8,1337.6,1937.1,1337.6z"></path>		<path class="st13" d="M2132.8,1348.3l16.7-4l-136-566.4c-4.3-19.9-12.6-36.8-23.8-48.7c-12.3-13-27.9-19.9-45.1-19.9h-143.1   c-18.3,0-35.6,8-48.7,22.5c-15.6,17.4-23,41.5-20.4,66.1l0.1,0.6l132.2,549.8l16.7-4l-19.5-81.1h250.6L2132.8,1348.3z    M1802.6,1017.1h250.7l26.7,111.2h-250.7L1802.6,1017.1z M2050.4,1005.2h-250.7l-26.3-109.5h250.7L2050.4,1005.2z M1765.5,743.4   c9.8-10.9,22.5-16.8,35.9-16.8h143.1c25.2,0,44.7,20.6,52.2,55.1l0,0.1l24.5,102.1h-250.7l-21.2-88.2   C1747.4,776,1753.3,757,1765.5,743.4z M1858.9,1251.4l-26.7-111.2h250.7l26.7,111.2H1858.9z"></path>		<path class="st27" d="M2000.4,625.3c27.5,76.5-20.1,106.9-20.1,106.9l-163.5,73l130.3,185.4l-67.3,66.3l-161-222.6   c-29.6-36.7-10.9-75.7,5.5-91l171.1-123.9L2000.4,625.3z"></path>		<polygon class="st27" points="1998.8,647.1 2008.9,916.4 2072.1,1194 1985.3,1194 1911.9,940.6 1885.1,706.6   "></polygon>		<path class="st28" d="M1888.7,1337.6h-27.6c-5.7,0-10.4,4.6-10.4,10.4v7.1h48.4v-7.1C1899.1,1342.2,1894.4,1337.6,1888.7,1337.6z"></path>		<path class="st28" d="M2155,1337.6h-27.6c-5.7,0-10.4,4.6-10.4,10.4v7.1h48.4v-7.1C2165.4,1342.2,2160.7,1337.6,2155,1337.6z"></path>		<path class="st26" d="M1932.8,1005.2l45.8,46.3l-70.2,76.8h-44.1c0,0-5.5-11.9,27.6-21c17.9-4.9,21.6-30.5,6-68.2L1932.8,1005.2z"></path>		<path class="st29" d="M1999.8,383.1c0,0,44.4-16.2,24.1-58.6c0,0,7.8-16.6-2.6-25.5c-15.4-13.1-56,11.3-85.5,11   c-18.5-0.2-20.4,24.7,4.7,24.3S1999.8,383.1,1999.8,383.1z"></path>		<path class="st30" d="M1941.3,335.2c0,0-7,36.8-5.3,54.7c1.7,17.9,6.7,24.2,26.8,19.3c20.1-5,40.1-20.9,41.2-21.6   c8.6-5.2,23.5-20.2,14.3-28.4c-6.7-5.9-13.2,2.7-13.2,2.7s-12.4,1.2-1.6-25.5c-8.2-4.4-23.1,16.1-31.6,3.6   C1961.7,324.8,1941.3,335.2,1941.3,335.2z"></path>		<path class="st0" d="M1939.1,351.6l-0.9,5.4c7.6,8.7,16.1,0.8,16.1,0.8C1950.2,350.4,1943.3,350.6,1939.1,351.6z"></path>		<path class="st30" d="M1871.9,397.1l-26.2-37.1l-49.9-25.7c0,0-4.4,5.3,2.2,11c0,0-8.1,2.4-0.4,9.2c0,0-4.8,3.7,0.4,9.2l22,22.8   l21.6,33.4L1871.9,397.1z"></path>		<g>			<path class="st14" d="M1761.6,388.9h-327.9c-9.6,0-17.4-7.8-17.4-17.4v-122c0-9.6,7.8-17.4,17.4-17.4h391.7    c9.6,0,17,8.4,15.8,17.9l-8.8,68c0,12.7-3.4,25.1-9.9,36l0,0C1809.9,375.7,1786.7,388.9,1761.6,388.9z"></path>			<path class="st25" d="M1446.9,388.9h-13.1c-9.6,0-17.4-7.8-17.4-17.4v-122c0-9.6,7.8-17.4,17.4-17.4h77c9.6,0,17,8.4,15.8,17.9    l-8.8,68c0,12.7-3.4,25.1-9.9,36v0C1495.1,375.7,1471.9,388.9,1446.9,388.9z"></path>			<path class="st18" d="M1449.1,374.2h-10.7c-7.8,0-14.1-6.6-14.1-14.7V256.6c0-8.1,6.3-14.7,14.1-14.7h62.6    c7.8,0,13.8,7.1,12.8,15.1l-7.1,57.4c0,10.7-2.8,21.2-8,30.4v0C1488.3,363.1,1469.4,374.2,1449.1,374.2z"></path>			<path class="st25" d="M1807.3,341.4h-265.5c-2.1,0-3.7-1.7-3.7-3.7v-0.4c0-2.1,1.7-3.7,3.7-3.7h265.5c2.1,0,3.7,1.7,3.7,3.7v0.4    C1811.1,339.8,1809.4,341.4,1807.3,341.4z"></path>			<path class="st25" d="M1801,357h-265.5c-2.1,0-3.7-1.7-3.7-3.7v-0.4c0-2.1,1.7-3.7,3.7-3.7H1801c2.1,0,3.7,1.7,3.7,3.7v0.4    C1804.7,355.3,1803,357,1801,357z"></path>			<path class="st25" d="M1795.3,372.5h-265.5c-2.1,0-3.7-1.7-3.7-3.7v-0.4c0-2.1,1.7-3.7,3.7-3.7h265.5c2.1,0,3.7,1.7,3.7,3.7v0.4    C1799,370.9,1797.4,372.5,1795.3,372.5z"></path>			<path class="st25" d="M1800.8,324.6h-235.1c-7.9,0-13.8-7.2-12.3-15l2.4-12.2c1.2-5.8,6.3-10.1,12.3-10.1h235.1    c7.9,0,13.8,7.2,12.3,15l-2.4,12.2C1811.9,320.4,1806.8,324.6,1800.8,324.6z"></path>			<circle class="st0" cx="1572.4" cy="304.2" r="5.3"></circle>			<circle class="st0" cx="1589.3" cy="304.2" r="5.3"></circle>			<circle class="st0" cx="1606.3" cy="304.2" r="5.3"></circle>			<path class="st0" d="M1737.1,310.5h-105.2c-3,0-5.5-2.5-5.5-5.5v-0.6c0-3,2.5-5.5,5.5-5.5h105.2c3,0,5.5,2.5,5.5,5.5v0.6    C1742.6,308.1,1740.1,310.5,1737.1,310.5z"></path>			<path class="st31" d="M1487,388.9c32.2-10.4,39.1-42.2,39.1-42.2l15.7-68.9c2.9-12.9,14.4-22.1,27.7-22.1h243.3    c9,0,16,7.9,14.8,16.8l-6.7,52.1c0,0-2.3,35.7-23.9,54.9"></path>		</g>		<path class="st30" d="M1738.6,429.4l-22.8-32.2l-49.9-25.7c0,0-4.4,5.3,2.2,11c0,0-8.1,2.4-0.4,9.2c0,0-4.8,3.7,0.4,9.2l22,22.8   l21.2,36.6L1738.6,429.4z"></path>		<polygon class="st30" points="1999.8,383.1 1997.9,437 1950.7,437.9 1955.9,389.8   "></polygon>		<path class="st32" d="M1992.4,525.9l-114.2-134.3l-45.2,34.8c0,0,103.5,157.6,107.6,157.6C1944.7,584.1,1992.4,525.9,1992.4,525.9   z"></path>		<path class="st32" d="M1953.6,432.8c0,0,29.4-14.3,46.8,0s31.1,30.9,24.6,77.7c-6.5,46.8-20.1,129.4-20.1,129.4l-97.6,1.2   c-18.8,0.2-37.1-6.6-51.1-19.2c-6.7-6-14.5-13-23-20.6c-28.6-25.6-72.8-67.3-132.9-128.4l41-46.4l134.2,116.2   C1875.4,542.6,1931.4,444,1953.6,432.8z"></path>		<path class="st30" d="M1845.6,360l-18.1-42.1c0,0-7,13.6,0,21.1c0,0-5.6,15.5-0.9,21.1H1845.6z"></path>		<path class="st32" d="M2021.3,460.2c0,0,35.2,117.1,25.6,137.4c-9.7,20.3-37,38.7-68.2,12.6L2021.3,460.2z"></path>		<path class="st0" d="M1981.8,363.5c0,0-8.3-11.3-19-4.5C1962.8,359.1,1967.6,373.1,1981.8,363.5z"></path>		<path class="st26" d="M1972.5,352.1c0,0,10.9-1.6,16.9,4.8c0,0-0.3-6.7-12.1-8.8C1977.3,348.1,1974.6,349.4,1972.5,352.1z"></path>					<ellipse transform="matrix(0.3437 -0.9391 0.9391 0.3437 953.8396 2088.9478)" class="st26" cx="1971.5" cy="362" rx="4.7" ry="3.9"></ellipse>		<path class="st33" d="M1962.8,359.1c0,0,9.5-7,19,4.5"></path>					<ellipse transform="matrix(0.1325 -0.9912 0.9912 0.1325 1334.3198 2237.1768)" class="st26" cx="1945.3" cy="356.3" rx="4.7" ry="3.9"></ellipse>		<path class="st33" d="M1954.4,357.7c0,0-4.3-8.7-15.3-6.1"></path>		<path class="st26" d="M1940.5,343.1c4.8,1.1,8.5,3.8,8.5,3.8c-0.6-3.3-2.4-5.7-2.4-5.7c-2.1-0.7-4-1-5.6-1.2L1940.5,343.1z"></path>		<path class="st31" d="M1954.4,363.5c0,0-5.2,8.2-5.4,11.4s10,0,10,0"></path>		<path class="st3" d="M1949,383.1c0-0.1,13.8-3.7,13.8-3.7s-2.6,5.7-5.6,6.4S1949,383.1,1949,383.1z"></path>		<path class="st27" d="M1946,605.8l43.2-108.9l34.5,29.1l-18.8,114l-98.5,49.7c0,0-0.4-30.1,12.3-42.9   C1930.3,635,1939.9,621.2,1946,605.8z"></path>		<path class="st27" d="M1989.1,496.9c0,0,19.5-46.9,9-65.7l8,6.7c0,0,4.2,30.5-10.3,65.7L1989.1,496.9z"></path>		<path class="st32" d="M2031.2,344.7l-131.4-40.3c0,0,1.8-5.8,10.8-3.6l29.2,8.2l93.4,29.4c1.7,0.5,2.7,2.4,2.1,4.1l0,0   C2034.7,344.3,2032.9,345.2,2031.2,344.7z"></path>		<path class="st32" d="M2031.5,337.9c0,0,14.5-45.9-35.9-61.5c0,0-46-13.6-60,31.5L2031.5,337.9z"></path>		<line class="st18" x1="1995.7" y1="276.4" x2="1981.7" y2="321"></line>		<path class="st18" d="M2017.5,332.1c0,0,11.1-38.1-18.8-54.7"></path>		<path class="st18" d="M1992.6,275.6c0,0-28.4,2.6-41,35.9"></path>					<ellipse transform="matrix(0.5121 -0.8589 0.8589 0.5121 738.339 1848.9827)" class="st9" cx="1996.7" cy="274.6" rx="4.7" ry="4.7"></ellipse>		<path class="st29" d="M1999.5,390.8c0,0-24.3,16.7-36.7,18.3c0,0,23.8-3.6,36.3-8.6L1999.5,390.8z"></path>		<line class="st31" x1="2002.7" y1="376.4" x2="2011.7" y2="365.3"></line>		<polygon class="st3" points="1932,454.8 1891.8,514.9 1885.4,505.3   "></polygon>		<path class="st34" d="M1827.5,339c-0.3,1-2.5,5.6-2.8,15.4"></path>		<polygon class="st3" points="1871.9,397.1 1838.9,415.8 1841.6,419.9   "></polygon>		<path class="st3" d="M1738.6,429.4l-31.7,23.2l4.4,7.7C1711.4,460.2,1740.1,428.3,1738.6,429.4z"></path>		<line class="st18" x1="1754.4" y1="437.9" x2="1715" y2="487.8"></line>		<polygon class="st3" points="1935.6,307.9 2032.8,332.1 2031.5,337.9   "></polygon>		<line class="st31" x1="1875.4" y1="542.6" x2="1866.6" y2="558"></line>		<line class="st31" x1="2004.6" y1="638" x2="1978.6" y2="638"></line>		<polygon class="st3" points="2026.4,496.9 2007.4,622.7 2014.9,622.7   "></polygon>		<line class="st18" x1="1887.8" y1="402.9" x2="1845.6" y2="437.9"></line>		<polygon class="st26" points="1892.6,771.4 1980.2,732.2 1894.1,785   "></polygon>		<line class="st18" x1="1875.4" y1="655.6" x2="1921.3" y2="682.1"></line>		<path class="st18" d="M1892.6,665.5l-137.1,93.1c0,0-41.7,33,10.7,86.7l132.2,150.3"></path>		<line class="st18" x1="1874.4" y1="1015.4" x2="1928.9" y2="966.5"></line>		<line class="st31" x1="1911.9" y1="940.6" x2="1947.1" y2="990.7"></line>		<line class="st31" x1="2008.9" y1="916.4" x2="1992.4" y2="916.4"></line>		<line class="st18" x1="1978.6" y1="1170.9" x2="2055.6" y2="1170.9"></line>		<path class="st18" d="M1947.1,747.1v164c0,0-2.3,20.9,8.4,48.3l68.2,211.5"></path>		<path class="st31" d="M1980.2,732.2c0,0,18.3-10.5,19.4-22.9"></path>		<path class="st35" d="M1909.2,1066.8c0,0-30.1-5.7-31.6,0C1875.1,1076,1909.2,1066.8,1909.2,1066.8z"></path>		<path class="st35" d="M1909.2,1067.5c0,0-28.3,11.9-26.4,17.4C1885.9,1094,1909.2,1067.5,1909.2,1067.5z"></path>		<path class="st35" d="M2008.7,1222.7c0,0-11.1-28.6-16.7-26.8C1982.9,1198.7,2008.7,1222.7,2008.7,1222.7z"></path>		<path class="st35" d="M2008.1,1223.1c0,0-25-17.7-28.8-13.1C1973.3,1217.3,2008.1,1223.1,2008.1,1223.1z"></path>		<path class="st18" d="M2078,1218.8c0,0-20.2,12.8-16.8,32.6"></path>		<polyline class="st18" points="1864.6,1123.2 1901.7,1123.2 1972.4,1045.3   "></polyline>		<line class="st18" x1="1941.3" y1="1244.6" x2="2060.9" y2="1244.6"></line>		<polygon class="st26" points="1816.8,805.2 1797.6,805.2 1850.7,853.6   "></polygon>		<line class="st31" x1="1769.8" y1="954.3" x2="1782.1" y2="1005.2"></line>		<line class="st31" x1="2039.9" y1="961.6" x2="2050.4" y2="1005.2"></line>		<line class="st34" x1="1668.2" y1="382.4" x2="1696.8" y2="397.1"></line>		<line class="st34" x1="1667.8" y1="391.6" x2="1694.6" y2="406.2"></line>		<line class="st31" x1="1752.1" y1="880.6" x2="1797.6" y2="943.5"></line>		<path class="st31" d="M1932,629.2c0,0,9.4-8,57.2-132.3"></path>		<line class="st18" x1="1981.8" y1="513.4" x2="2016.9" y2="537.8"></line>	</g>	<g>		<path class="st30" d="M979.8,1071.7c0,0,24,6.7,27.5,11c5.9,7.3,3.3,14,1.8,15.4L979.8,1071.7z"></path>		<path class="st26" d="M581.3,1289.9l-58.4,1.1l-75.1,119.4c0,0,22.9,1.2,33-16.8c13.8-24.4,38.5-40.8,85.9-54.3L581.3,1289.9z"></path>		<path class="st9" d="M806.1,859.3c0,0,23.8-17.7,5.7-40.8s-62.7-33.7-66.1-18.3c0,0-1.9,6.2,0,10.1c0,0-18.1-0.2-19.2,8.6   c-1.2,8.8-3,27.9,7.9,57L806.1,859.3z"></path>		<path class="st32" d="M795.7,963.8l39.6,125l115.1-87.7l35,47.9l-144.3,124.8c-14.6,12.6-36.9,9.7-47.8-6.2l-72.2-106L795.7,963.8   z"></path>		<path class="st27" d="M676,1297.1h71.1l55.1-232.9c9.6-32.6-63.9-72.7-90.4-1.5L676,1297.1z"></path>		<path class="st30" d="M806.6,841.8c0,0-0.6,16.3-0.6,29.9c0,2.5,0,4.9,0,7.1c0.1,14.1-4,31.9-13.9,35.2c-8.8,3-16,2-29.9-4.5   l-8.5,23.3l-35.7-19.1l19.7-45.3c0,0-10.3-11.8-3.3-21c7-9.3,14.4,12,14.4,12s8.1-9.3,6.8-25.7C780.9,856.4,794,854.7,806.6,841.8   z"></path>		<path class="st27" d="M581.3,1126l-6.7,35.5c0,0-11.5,52.2,81.5,64.6l85.9,53l-182.7,10.4v64.9h300.4c12.2,0,53.2-84.7,3.5-123   L746.4,1142l-73-79.4L581.3,1126z"></path>		<polygon class="st36" points="706.2,1098.3 684.4,1243.6 671.5,1235.7   "></polygon>		<line class="st37" x1="776.8" y1="1165.3" x2="752" y2="1263.5"></line>		<line class="st37" x1="683.6" y1="1245.7" x2="676" y2="1297.1"></line>		<g>			<polygon class="st38" points="1154.2,1113 941.3,1113 897.9,1213.4 1110.8,1213.4    "></polygon>			<path class="st39" d="M1110.8,1213.3c8.2,4.8,17.7,7.6,27.9,7.6c30.3,0,55-24.6,55-55c0-25-16.8-46.2-39.7-52.8L1110.8,1213.3z"></path>			<path class="st18" d="M1122.6,1204c6.2,3.7,13.5,5.8,21.3,5.8c23.1,0,41.9-18.7,41.9-41.9c0-19.1-12.8-35.2-30.2-40.2    L1122.6,1204z"></path>			<polyline class="st18" points="915.3,1208.6 947.6,1124.8 1135.5,1124.8 1096.6,1212.7    "></polyline>			<polygon class="st26" points="897.9,1213.4 902,1204 1110.8,1213.3    "></polygon>			<g>				<rect x="896.3" y="1123.7" class="st36" width="18.3" height="32.1"></rect>				<path class="st36" d="M896.3,1132.8h-9.9c0,0-6.3-1.4-7-11.4c0,0-38.8-8.2-53.6,24.5l6.1,4.5c0,0,8.8-9.2,18.4-6.3     c9.6,2.9,9.4,13.3,9.4,13.3h24.3c0,0,0.7-8.4,12.5-7.6V1132.8z"></path>				<rect x="864.1" y="1157.4" class="st38" width="15.8" height="32.7"></rect>				<path class="st32" d="M872,1276L872,1276c-4.4,0-7.9-3.5-7.9-7.9v-77.9h15.8v77.9C879.9,1272.5,876.4,1276,872,1276z"></path>			</g>			<g>				<path class="st40" d="M955.7,1111.8v36.3c0,4.6-3.7,8.3-8.3,8.3h0c-4.6,0-8.3-3.7-8.3-8.3v-36.3l-16.6,16v29.3l16,16v33.9h0.6     h16.6h0.6v-33.9l16-16v-29.3L955.7,1111.8z"></path>				<path class="st32" d="M947.4,1264.2L947.4,1264.2c-4.9,0-9-4-9-9v-60.5h17.9v60.5C956.4,1260.2,952.4,1264.2,947.4,1264.2z"></path>			</g>			<g>				<path class="st32" d="M1000.3,1264.2L1000.3,1264.2c-4.9,0-9-4-9-9v-60.5h17.9v60.5C1009.2,1260.2,1005.2,1264.2,1000.3,1264.2z     "></path>				<rect x="988.6" y="1186.4" class="st39" width="23.4" height="8.3"></rect>				<polygon class="st40" points="1008.7,1111.8 991.9,1111.8 991.9,1136 995.7,1140.9 995.7,1186.4 1004.8,1186.4 1004.8,1140.9      1008.7,1136     "></polygon>			</g>			<rect x="802.7" y="1213.4" class="st38" width="209.2" height="32.2"></rect>			<rect x="1011.9" y="1213.4" class="st39" width="99" height="32.2"></rect>			<rect x="812.7" y="1245.7" class="st38" width="205.2" height="108.8"></rect>			<rect x="1017.9" y="1245.7" class="st39" width="82.9" height="108.8"></rect>			<polygon class="st26" points="1017.9,1245.7 1017.9,1354.5 1028.6,1354.5    "></polygon>			<polygon class="st26" points="812.7,1245.7 812.7,1254.3 1100.8,1245.7    "></polygon>			<path class="st32" d="M857.3,1271.4h-23.1v-26.3c0-5.1,4.2-9.3,9.3-9.3h4.6c5.1,0,9.3,4.2,9.3,9.3V1271.4z"></path>			<path class="st32" d="M987.8,1274.1h-23.1v-26.3c0-5.1,4.2-9.3,9.3-9.3h4.6c5.1,0,9.3,4.2,9.3,9.3V1274.1z"></path>			<line class="st18" x1="812.7" y1="1332.9" x2="1100.8" y2="1332.9"></line>			<line class="st37" x1="1011.9" y1="1213.4" x2="1011.9" y2="1243.7"></line>			<line class="st18" x1="834.2" y1="1253.6" x2="857.3" y2="1253.6"></line>			<line class="st18" x1="964.6" y1="1254.3" x2="987.8" y2="1254.3"></line>			<polygon class="st26" points="938.5,1194.7 938.5,1192.7 956.4,1194.7    "></polygon>			<polygon class="st26" points="995.7,1186.4 995.7,1184 1004.8,1186.4    "></polygon>			<polygon class="st26" points="991.3,1194.7 991.3,1199.2 1009.2,1194.7    "></polygon>		</g>		<path class="st32" d="M774.9,943.7l-89.1-47.9c0,0-56.7-25-69,23.9l-11,81.2L581.3,1126l92.1-63.4c0,0,6.4,34.5,31.8,35.4   l229.1,16.5l5.4-54.5L787,1021.8l8.8-56.2C795.8,965.5,797.1,951.5,774.9,943.7z"></path>		<path class="st27" d="M703.7,905.4c0,0,9,17.7,2.5,50.7l11.8,22.5c0,0,9.7-40.8,3.2-63.9L703.7,905.4z"></path>		<path class="st27" d="M769.1,940.6c0,0,12.4,20.9,2.7,63.6l12.6,3.5c0,0,6.2-43.6-2.3-60.8L769.1,940.6z"></path>		<polygon class="st27" points="703.7,951.4 721.7,986 733.1,1007.7 782.9,1020.5 784.5,1007.7 771.9,1004.2 731.5,993   "></polygon>		<polyline class="st37" points="816.4,1029.2 733.1,1007.7 694,932.9   "></polyline>		<path class="st27" d="M673.4,1062.7l-22.5-64.7c0,0-33.4,12.4-44.7,0L581.3,1126L673.4,1062.7z"></path>		<path class="st30" d="M939.7,1060.1l28.4,6.7l19.1,8.1c8.5,3.6,15.6,10.1,19.9,18.3l14.5,27.7c1.7,2.6-1.3,5.5-6.8,3.9   c0,0-2.9,3.9-7.9,3.4c0,0-1.4,5.1-5.9,2.6l-25.8-27.3c0,0-36.8,2-40.1,1.9C934.7,1105.4,939.7,1060.1,939.7,1060.1z"></path>		<path class="st30" d="M950.4,1001l13.9-17l6.9-17l7.3-11.8c0,0,6.8,2.7,1.5,24.5l6.2,11l13.4,17.1l-24.7,27.1L950.4,1001z"></path>		<path class="st30" d="M999.8,1007.7l15-20.4c0,0-1-11.5-5.8-12.9c0,0-3.1-9.8-6.8-8.5c0,0-3.4-9.5-8.5-7.8   c0,0-20.3,27.1-16.6,28.5c3.7,1.4,12,15.4,12,15.4L999.8,1007.7z"></path>		<path class="st0" d="M781.3,867c0,0,12.7-6.1,18.9,5.1C800.2,872.1,789.3,882.1,781.3,867z"></path>		<path class="st26" d="M798.7,861.5c0,0-10.2-4.2-17.5,0.7c0,0,1.8-6.4,13.8-5.7C795.1,856.5,797.3,858.5,798.7,861.5z"></path>					<ellipse transform="matrix(0.1403 -0.9901 0.9901 0.1403 -179.9827 1534.8552)" class="st26" cx="793.8" cy="871.1" rx="4.3" ry="3.9"></ellipse>		<path class="st33" d="M800.2,872.1c0,0-5.1-10.6-18.9-5.1"></path>		<path class="st37" d="M785.6,887.3c0,0,0.7,8.6,8.2,7.6"></path>		<path class="st30" d="M804.6,864.5c0,0,1.8,12.2,6.7,16.8c3,2.9-6.7,9.1-9.4,7.3C799.2,886.6,804.6,864.5,804.6,864.5z"></path>		<polygon class="st3" points="673.4,1062.7 588.6,1121 671.5,1057.2   "></polygon>		<polygon class="st36" points="792.7,1104.4 912,1113 790.7,1113   "></polygon>		<polygon class="st36" points="939.7,1060.1 935.2,1105.4 939.7,1105.3   "></polygon>		<line class="st37" x1="897.9" y1="1049.6" x2="965.5" y2="1066.1"></line>		<path class="st26" d="M682.1,1297.1l-13.8,57.4h147.3c0,0,1-10.4-17.4-13.4c-18.3-3-53.4-8.4-68.3-44H682.1z"></path>		<path class="st32" d="M721.2,829.5l133.5,32.7c0,0,1.4-5.9-7.4-8.6l-29.2-7.9l-95.3-22.6c-1.8-0.4-3.6,0.7-4,2.5l0,0   C718.3,827.3,719.4,829.1,721.2,829.5z"></path>		<path class="st32" d="M724.4,823.5c0,0,11-46.9,62.3-34.5c0,0,46.5,11.9,35.4,57.8L724.4,823.5z"></path>		<polygon class="st9" points="650.9,997.9 637.5,963.8 644.8,1000.7   "></polygon>		<line class="st18" x1="924.7" y1="1056.1" x2="918.8" y2="1113"></line>		<line class="st18" x1="935.2" y1="1012.6" x2="969.5" y2="1062.7"></line>		<polygon class="st36" points="950.4,1001 978.6,1031 975.1,1034.8   "></polygon>		<line class="st37" x1="742" y1="1279.2" x2="764.4" y2="1279.2"></line>		<line class="st18" x1="734.6" y1="1100.2" x2="706.2" y2="1271.4"></line>		<line class="st18" x1="688.8" y1="1271.4" x2="747.1" y2="1271.4"></line>		<line class="st18" x1="764.4" y1="1224.1" x2="812.7" y2="1267.3"></line>		<line class="st18" x1="573.3" y1="1317" x2="676" y2="1317"></line>		<line class="st18" x1="573.3" y1="1288.7" x2="573.3" y2="1337.2"></line>		<line class="st37" x1="733.1" y1="1007.7" x2="723.4" y2="1020.5"></line>		<path class="st3" d="M762.1,909.5l-6.9-7.7c0,0,3.6,16.6,3.9,15.7C759.5,916.7,762.1,909.5,762.1,909.5z"></path>		<path class="st18" d="M742,1325.8c0,0,18.9-40.1,26.7-28.7C776.4,1308.4,742,1325.8,742,1325.8z"></path>		<path class="st18" d="M742,1325.2c0,0,43-10.8,39.1,2.4S742,1325.2,742,1325.2z"></path>		<path class="st18" d="M526.4,1341.5c0,0,43.3,9.4,34,19.5C551,1371.1,526.4,1341.5,526.4,1341.5z"></path>		<path class="st18" d="M527,1341.3c0,0,20.2,39.4,6.4,38.6C519.7,1379.2,527,1341.3,527,1341.3z"></path>		<path class="st34" d="M980.7,977.1c0,0-3.7,8.9,3.6,8.3l11.4-15.2"></path>		<path class="st34" d="M984.4,985.4c0,0,0.8,9.3,6.6,5.6l12.1-11.3"></path>		<path class="st34" d="M991,991.1c0,0,0.1,8.2,4.8,5.3l11.5-8.7"></path>		<path class="st34" d="M982.8,985.5c0,0,3.1,2.7,0,10.8"></path>		<path class="st34" d="M1014.8,1124.8l-19.1-29c0,0-3-6.1-8-7"></path>		<path class="st34" d="M1006.9,1128.2l-16-23.8c0,0-3.2-6.2-8.2-6.2"></path>		<path class="st34" d="M1009,1098.2l-5.3-10.3c0,0-6.1-7.2-9.9-9.4"></path>		<line class="st37" x1="737.5" y1="851.6" x2="741.3" y2="860.8"></line>		<line class="st18" x1="786.7" y1="789" x2="775.8" y2="834.5"></line>		<path class="st18" d="M739.4,825.6c0,0,10-38.5,44.1-37.3"></path>		<path class="st18" d="M789.7,789.9c0,0,23.1,16.8,16.9,51.8"></path>		<circle class="st9" cx="786.7" cy="786.9" r="4.7"></circle>		<polygon class="st9" points="724.4,823.5 725.1,821 822.1,846.8   "></polygon>		<line class="st37" x1="717.9" y1="913.8" x2="753.6" y2="932.9"></line>		<path class="st18" d="M603.1,1014.1c0,0,27,13,51.3-6.4"></path>		<line class="st37" x1="656.1" y1="1226.1" x2="679.8" y2="1214.4"></line>		<path class="st18" d="M512.3,1307.8c0,0,25.7,1.8,30.1-17.2"></path>		<line class="st18" x1="522.7" y1="1307" x2="461.7" y2="1408.4"></line>		<path class="st18" d="M674.9,1326.9c0,0,16.4,0.8,13.9,27.5"></path>		<line class="st18" x1="688.8" y1="1344.6" x2="809" y2="1344.6"></line>	</g>	<line class="st31" x1="711.7" y1="1355.1" x2="2022.2" y2="1355.1"></line>	<g>		<rect class="st41" width="2340" height="70.1"></rect>		<polygon class="st25" points="2340,0 0,48.1 0,0 2340,0   "></polygon>	</g>	<g>		<rect x="1280.7" y="437.8" class="st38" width="153.7" height="153.7"></rect>		<rect x="1292.9" y="449.9" class="st0" width="129.3" height="129.3"></rect>		<polygon class="st2" points="1362.9,449.8 1292.3,538.3 1292.9,579.3 1394,450.8   "></polygon>		<polygon class="st2" points="1422.2,449.9 1316.6,579.6 1352.4,579.6 1422.2,489.1   "></polygon>		<circle class="st3" cx="1357.5" cy="437.4" r="6.2"></circle>	</g>	<rect x="1205.6" y="794.5" class="st14" width="288" height="14.2"></rect>	<g>		<g>			<line class="st42" x1="1258" y1="685.5" x2="1260.2" y2="596.2"></line>			<path class="st42" d="M1259.1,638.9c0,0-2.4-11.4-9.7-18.1"></path>			<path class="st42" d="M1261.5,663.6c0,0,2.9-15.9,10.3-20.2"></path>			<line class="st42" x1="1261.9" y1="627.7" x2="1261.5" y2="686.4"></line>			<path class="st43" d="M1260.2,600.5c0,0,3.3-35.9-5.8-31.7C1248,571.7,1260.2,600.5,1260.2,600.5z"></path>			<path class="st8" d="M1264.5,588.9c0,0,3.9-17.6,7.6-14.2C1274.7,577,1264.5,588.9,1264.5,588.9z"></path>			<path class="st8" d="M1251.4,638.3c0,0-6.7-16.7-9.8-12.8C1239.3,628.3,1251.4,638.3,1251.4,638.3z"></path>			<path class="st8" d="M1259.1,617.7c0,0-8.9-41-20.3-31.9C1234.2,589.5,1253,608,1259.1,617.7z"></path>			<path class="st8" d="M1261.5,633.3c0,0,0-44.5,12.4-36.8C1279.6,600,1266.3,617,1261.5,633.3z"></path>			<path class="st43" d="M1261.5,641c0,0,14.7-36.8,23.9-28.8C1289.8,616.1,1277.2,620.7,1261.5,641z"></path>			<path class="st8" d="M1258.7,663c0,0-14.7-36.8-23.9-28.8C1230.4,638.1,1243,642.7,1258.7,663z"></path>			<path class="st43" d="M1251.4,623c0,0-23.5-29.8-28.8-21.9C1219.5,606,1239.6,615.1,1251.4,623z"></path>			<path class="st8" d="M1268,646.4c0,0,23.5-29.2,28.7-21.2C1300,630,1279.8,638.5,1268,646.4z"></path>			<line class="st44" x1="1289.4" y1="629.9" x2="1277.2" y2="638.9"></line>			<line class="st44" x1="1270" y1="601.8" x2="1264.5" y2="618.3"></line>			<path class="st44" d="M1281.1,615.8c0,0-7.8,7.6-11.1,11.9"></path>			<path class="st44" d="M1239.3,638.3c0,0,6.1,2.7,12.2,14.1"></path>			<path class="st44" d="M1228.4,604.8c0,0,9.1,4.2,13.6,9.7"></path>			<path class="st44" d="M1243.7,589.5c0,0,7.1,8.4,10.6,18.5"></path>			<path class="st44" d="M1255.5,572.4c0,0,3.6,9,3.6,17.1"></path>		</g>		<g>			<defs>				<path id="XMLID_4_" d="M1280.2,730.1c-11.4-17.1-14.7-45.4-14.7-45.4h-5.7h-5.7c0,0-3.3,28.3-14.7,45.4     c-11.4,17.1-14,45.6-4.7,62.8h25h25C1294.2,775.8,1291.6,747.3,1280.2,730.1z"></path>			</defs>			<use xlink:href="#XMLID_4_" style="overflow:visible;fill:#FFFFFF;"></use>			<clipPath id="XMLID_2_">				<use xlink:href="#XMLID_4_" style="overflow:visible;"></use>			</clipPath>							<rect x="1207.6" y="742" transform="matrix(0.9845 0.1756 -0.1756 0.9845 151.1931 -211.0375)" class="st45" width="121" height="13.7"></rect>							<rect x="1199.4" y="758.9" transform="matrix(0.9845 0.1756 -0.1756 0.9845 153.2791 -209.3962)" class="st45" width="121" height="5"></rect>							<use xlink:href="#XMLID_4_" style="overflow:visible;fill:none;stroke:#2D100A;stroke-width:1.1847;stroke-linecap:round;stroke-linejoin:round;stroke-miterlimit:10;"></use>		</g>		<polygon class="st3" points="1234.8,792.9 1232.5,787.7 1284.8,792.9   "></polygon>		<polygon class="st3" points="1265.5,684.7 1253.6,688.7 1254.1,684.7   "></polygon>	</g></g></svg>